<svg aria-hidden="true" style="position: absolute; width: 0; height: 0; overflow: hidden;" version="1.1" xmlns="http://www.w3.org/2000/svg" xmlns:xlink="http://www.w3.org/1999/xlink">
<defs>
<symbol id="icon-angle-left" viewBox="0 0 16 32">
<path d="M12 28c-0.512 0-1.024-0.195-1.414-0.586l-10-10c-0.781-0.781-0.781-2.047 0-2.828l10-10c0.781-0.781 2.047-0.781 2.828 0s0.781 2.047 0 2.828l-8.586 8.586 8.588 8.587c0.781 0.781 0.781 2.047 0 2.828-0.391 0.391-0.903 0.584-1.416 0.584z"></path>
</symbol>
<symbol id="icon-angle-right" viewBox="0 0 16 32">
<path d="M4 28c-0.512 0-1.024-0.195-1.414-0.586-0.781-0.781-0.781-2.047 0-2.828l8.589-8.586-8.589-8.588c-0.781-0.781-0.781-2.047 0-2.828s2.047-0.781 2.828 0l10 10c0.781 0.781 0.781 2.047 0 2.828l-10 10c-0.391 0.394-0.902 0.587-1.414 0.587z"></path>
</symbol>
<symbol id="icon-bars" viewBox="0 0 28 32">
<path d="M0 6c0-1.104 0.896-2 2-2h24c1.106 0 2 0.896 2 2 0 1.106-0.894 2-2 2h-24c-1.104 0-2-0.894-2-2zM0 16c0-1.106 0.896-2 2-2h24c1.106 0 2 0.894 2 2s-0.894 2-2 2h-24c-1.104 0-2-0.894-2-2zM26 28h-24c-1.104 0-2-0.894-2-2s0.896-2 2-2h24c1.106 0 2 0.894 2 2s-0.894 2-2 2z"></path>
</symbol>
<symbol id="icon-cart-plus" viewBox="0 0 36 32">
<path d="M6 0c0.719 0 1.338 0.512 1.475 1.219l0.094 0.781h26.294c1.269 0 2.281 1.266 1.925 2.541l-3.375 12.002c-0.244 0.863-1.031 1.456-1.925 1.456h-19.819l0.575 3h19.256c0.831 0 1.5 0.669 1.5 1.5s-0.669 1.5-1.5 1.5h-20.556c-0.662 0-1.281-0.512-1.419-1.219l-3.766-19.781h-3.259c-0.828 0-1.5-0.672-1.5-1.5s0.672-1.5 1.5-1.5h4.5zM17 11.25h2.75v2.75c0 0.688 0.506 1.25 1.25 1.25 0.688 0 1.25-0.563 1.25-1.25v-2.75h2.75c0.688 0 1.25-0.563 1.25-1.25 0-0.744-0.563-1.25-1.25-1.25h-2.75v-2.75c0-0.691-0.563-1.25-1.25-1.25-0.744 0-1.25 0.559-1.25 1.25v2.75h-2.75c-0.744 0-1.25 0.506-1.25 1.25 0 0.688 0.506 1.25 1.25 1.25zM8 29c0-1.656 1.344-3 3-3s3 1.344 3 3c0 1.656-1.344 3-3 3s-3-1.344-3-3zM32 29c0 1.656-1.344 3-3 3s-3-1.344-3-3c0-1.656 1.344-3 3-3s3 1.344 3 3z"></path>
</symbol>
<symbol id="icon-cart-shopping" viewBox="0 0 36 32">
<path d="M6 0c0.719 0 1.338 0.512 1.475 1.219l0.094 0.781h26.294c1.269 0 2.281 1.266 1.925 2.541l-3.375 12.002c-0.244 0.863-1.031 1.456-1.925 1.456h-19.819l0.575 3h19.256c0.831 0 1.5 0.669 1.5 1.5s-0.669 1.5-1.5 1.5h-20.556c-0.662 0-1.281-0.512-1.419-1.219l-3.766-19.781h-3.259c-0.828 0-1.5-0.672-1.5-1.5s0.672-1.5 1.5-1.5h4.5zM8 29c0-1.656 1.344-3 3-3s3 1.344 3 3c0 1.656-1.344 3-3 3s-3-1.344-3-3zM32 29c0 1.656-1.344 3-3 3s-3-1.344-3-3c0-1.656 1.344-3 3-3s3 1.344 3 3z"></path>
</symbol>
<symbol id="icon-facebook-square" viewBox="0 0 28 32">
<path d="M25 2h-22c-1.657 0-3 1.343-3 3v0 22c0 1.657 1.343 3 3 3v0h8.578v-9.519h-3.938v-4.481h3.938v-3.415c0-3.884 2.313-6.030 5.854-6.030 1.696 0 3.47 0.303 3.47 0.303v3.813h-1.954c-1.926 0-2.526 1.195-2.526 2.421v2.909h4.299l-0.688 4.481h-3.611v9.519h8.578c1.657 0 3-1.343 3-3v0-22c0-1.657-1.343-3-3-3v0z"></path>
</symbol>
<symbol id="icon-heart" viewBox="0 0 32 32">
<path d="M0 11.931v-0.363c0-4.369 3.158-8.095 7.463-8.813 2.794-0.474 5.75 0.454 7.787 2.495l0.75 0.749 0.694-0.749c2.094-2.041 4.994-2.969 7.844-2.495 4.306 0.718 7.462 4.444 7.462 8.813v0.363c0 2.594-1.075 5.075-2.975 6.844l-11.294 10.544c-0.469 0.438-1.087 0.681-1.731 0.681s-1.262-0.244-1.731-0.681l-11.294-10.544c-1.897-1.769-2.974-4.25-2.974-6.844h-0z"></path>
</symbol>
<symbol id="icon-house" viewBox="0 0 36 32">
<path d="M35.987 15.969c0 1.125-0.938 2.006-2 2.006h-2l0.044 10.006c0 0.175-0.013 0.337-0.031 0.506v1.012c0 1.381-1.119 2.5-2.5 2.5h-1c-0.069 0-0.137-0.056-0.206-0.006-0.087-0.050-0.175 0.006-0.262 0.006h-3.531c-1.381 0-2.5-1.119-2.5-2.5v-5.5c0-1.106-0.894-2-2-2h-4c-1.106 0-2 0.894-2 2v5.5c0 1.381-1.119 2.5-2.5 2.5h-3.494c-0.094 0-0.188-0.006-0.281-0.012-0.075 0.006-0.15 0.012-0.225 0.012h-1c-1.381 0-2.5-1.119-2.5-2.5v-7c0-0.056 0.002-0.119 0.006-0.175v-4.35h-2.002c-1.127 0-2.003-0.881-2.003-2.006 0-0.563 0.188-1.063 0.626-1.5l16.024-13.968c0.438-0.438 0.938-0.501 1.375-0.501s0.938 0.125 1.319 0.438l15.956 14.030c0.5 0.438 0.756 0.938 0.688 1.5v0z"></path>
</symbol>
<symbol id="icon-info" viewBox="0 0 12 32">
<path d="M10 28h-2v-14c0-1.106-0.896-2-2-2h-4c-1.104 0-2 0.894-2 2s0.896 1.944 2 1.944h2v12h-2c-1.104 0-2 0.894-2 2s0.896 2 2 2h8c1.104 0 2-0.894 2-2s-0.894-1.944-2-1.944zM6 8c1.657 0 3-1.343 3-3s-1.344-2.999-3-2.999-3 1.343-3 3 1.343 2.999 3 2.999z"></path>
</symbol>
<symbol id="icon-instagram-square" viewBox="0 0 28 32">
<path d="M14 12.666c-1.841 0.001-3.332 1.493-3.332 3.334s1.493 3.334 3.334 3.334 3.334-1.493 3.334-3.334v0c-0.001-1.841-1.494-3.333-3.335-3.334h-0zM21.794 10.104c-0.351-0.872-1.029-1.55-1.878-1.893l-0.023-0.008c-1.313-0.518-4.438-0.402-5.894-0.402s-4.578-0.121-5.894 0.402c-0.872 0.351-1.55 1.029-1.893 1.878l-0.008 0.023c-0.518 1.313-0.402 4.441-0.402 5.896s-0.116 4.579 0.404 5.896c0.351 0.872 1.029 1.55 1.878 1.893l0.023 0.008c1.313 0.518 4.438 0.402 5.894 0.402s4.577 0.121 5.894-0.402c0.872-0.351 1.55-1.029 1.893-1.878l0.008-0.023c0.522-1.313 0.402-4.441 0.402-5.896s0.12-4.579-0.402-5.896zM14 21.125c-2.83 0-5.125-2.295-5.125-5.125s2.295-5.125 5.125-5.125c2.83 0 5.125 2.295 5.125 5.125v0c0 0.002 0 0.004 0 0.006 0 2.827-2.292 5.119-5.119 5.119-0.002 0-0.004 0-0.007 0h0zM19.336 11.856c-0 0-0 0-0.001 0-0.661 0-1.196-0.536-1.196-1.196s0.536-1.196 1.196-1.196c0.661 0 1.196 0.536 1.196 1.196v0c0 0.002 0 0.003 0 0.005 0 0.659-0.534 1.193-1.193 1.194h-0zM25 2h-22c-1.657 0-3 1.343-3 3v0 22c0 1.657 1.343 3 3 3v0h22c1.657 0 3-1.343 3-3v0-22c0-1.657-1.343-3-3-3v0zM23.93 20.125c-0.081 1.602-0.446 3.021-1.616 4.188s-2.587 1.539-4.188 1.616c-1.651 0.093-6.599 0.093-8.25 0-1.602-0.081-3.016-0.447-4.188-1.616s-1.539-2.589-1.616-4.188c-0.093-1.651-0.093-6.601 0-8.25 0.081-1.602 0.442-3.021 1.616-4.188s2.592-1.535 4.188-1.611c1.651-0.093 6.599-0.093 8.25 0 1.602 0.081 3.021 0.447 4.188 1.616s1.539 2.589 1.616 4.191c0.093 1.645 0.093 6.59 0 8.242z"></path>
</symbol>
<symbol id="icon-magnifying-glass" viewBox="0 0 32 32">
<path d="M31.269 27.731l-7.481-7.481c1.701-2.526 2.541-5.681 2.091-9.044-0.766-5.719-5.454-10.374-11.179-11.099-8.512-1.077-15.669 6.080-14.592 14.592 0.725 5.728 5.38 10.419 11.1 11.181 3.362 0.449 6.519-0.39 9.044-2.091l7.481 7.481c0.976 0.976 2.559 0.976 3.536 0 0.975-0.977 0.975-2.565 0-3.54zM4.944 13c0-4.411 3.589-8 8-8s8 3.589 8 8c0 4.411-3.589 8-8 8s-8-3.587-8-8z"></path>
</symbol>
<symbol id="icon-minus" viewBox="0 0 28 32">
<path d="M25 18h-22c-1.106 0-2-0.895-2-2.001s0.894-1.999 2-1.999h22c1.106 0 2 0.894 2 1.999s-0.894 2.001-2 2.001z"></path>
</symbol>
<symbol id="icon-plus" viewBox="0 0 28 32">
<path d="M27 16c0 1.106-0.896 2.001-2 2.001h-9v9c0 1.106-0.896 1.999-2 1.999s-2-0.894-2-1.999v-9h-9c-1.104 0-2-0.895-2-2.001s0.896-1.999 2-1.999h9v-9c0-1.106 0.896-2.001 2-2.001s2 0.895 2 2.001v9h9c1.106-0.001 2 0.893 2 1.999z"></path>
</symbol>
<symbol id="icon-trash" viewBox="0 0 28 32">
<path d="M8.45 1.106c0.338-0.678 1.031-1.106 1.787-1.106h7.525c0.756 0 1.45 0.428 1.788 1.106l0.45 0.894h6c1.106 0 2 0.896 2 2s-0.894 2-2 2h-24c-1.104 0-2-0.896-2-2s0.896-2 2-2h6l0.45-0.894zM24.675 29.131c-0.1 1.637-1.406 2.869-2.994 2.869h-15.363c-1.584 0-2.896-1.231-2.994-2.869l-1.381-21.131h24.056l-1.325 21.131z"></path>
</symbol>
<symbol id="icon-twitter-square" viewBox="0 0 28 32">
<path d="M25 2h-22c-1.656 0-3 1.344-3 3v22c0 1.656 1.344 3 3 3h22c1.656 0 3-1.344 3-3v-22c0-1.656-1.344-3-3-3zM21.944 11.925c0.012 0.175 0.012 0.356 0.012 0.531 0 5.419-4.125 11.662-11.662 11.662-2.325 0-4.481-0.675-6.294-1.837 0.331 0.038 0.65 0.050 0.987 0.050 1.919 0 3.681-0.65 5.088-1.75-1.8-0.038-3.313-1.219-3.831-2.844 0.631 0.094 1.2 0.094 1.85-0.075-1.875-0.381-3.281-2.031-3.281-4.025v-0.050c0.544 0.306 1.181 0.494 1.85 0.519-1.107-0.744-1.825-1.991-1.825-3.406 0-0.002 0-0.005 0-0.007v0c0-0.762 0.2-1.463 0.556-2.069 2.019 2.487 5.050 4.112 8.45 4.287-0.581-2.781 1.5-5.037 4-5.037 1.181 0 2.244 0.494 2.994 1.294 0.925-0.175 1.813-0.519 2.6-0.988-0.306 0.95-0.95 1.75-1.8 2.256 0.825-0.088 1.625-0.319 2.363-0.637-0.556 0.819-1.256 1.544-2.056 2.125z"></path>
</symbol>
<symbol id="icon-xmark" viewBox="0 0 20 32">
<path d="M19.413 22.587c0.781 0.781 0.781 2.047 0 2.828-0.387 0.391-0.9 0.584-1.413 0.584s-1.024-0.195-1.414-0.586l-6.586-6.583-6.586 6.581c-0.391 0.394-0.902 0.587-1.414 0.587s-1.023-0.194-1.414-0.587c-0.781-0.781-0.781-2.047 0-2.828l6.588-6.588-6.588-6.584c-0.781-0.781-0.781-2.047 0-2.828s2.047-0.781 2.828 0l6.586 6.591 6.587-6.588c0.781-0.781 2.047-0.781 2.828 0s0.781 2.047 0 2.828l-6.588 6.588 6.584 6.584z"></path>
</symbol>
</defs>
</svg>
